<?xml version="1.0" standalone="no"?>
<!DOCTYPE svg PUBLIC "-//W3C//DTD SVG 20010904//EN"
 "http://www.w3.org/TR/2001/REC-SVG-20010904/DTD/svg10.dtd">
<svg version="1.0" xmlns="http://www.w3.org/2000/svg"
 width="209.000000pt" height="215.000000pt" viewBox="0 0 209.000000 215.000000"
 preserveAspectRatio="xMidYMid meet">

<g transform="translate(0.000000,215.000000) scale(0.100000,-0.100000)"
fill="#000000" stroke="none">
<path d="M903 2030 c-97 -14 -180 -39 -282 -86 -272 -127 -462 -358 -537 -653
-44 -170 -33 -388 27 -561 93 -269 319 -495 593 -593 420 -149 890 3 1137 369
63 94 100 172 136 289 25 83 27 103 27 260 0 199 -15 270 -89 423 -56 116 -90
167 -177 258 -134 140 -299 234 -498 280 -80 18 -254 26 -337 14z m397 -138
c342 -112 581 -418 606 -776 18 -248 -73 -490 -251 -671 -337 -341 -871 -350
-1223 -20 -249 232 -337 599 -223 928 68 195 230 383 411 476 162 83 246 102
440 97 130 -3 155 -6 240 -34z"/>
<path d="M930 1693 c-75 -30 -112 -53 -160 -102 -75 -74 -103 -145 -103 -256
0 -113 28 -181 107 -261 76 -76 148 -107 251 -108 88 -1 145 15 215 62 66 45
111 102 140 179 31 82 26 205 -12 285 -32 70 -98 138 -170 174 -46 24 -67 28
-153 31 -55 1 -107 0 -115 -4z"/>
<path d="M668 825 c-63 -17 -125 -55 -177 -106 -43 -43 -81 -106 -81 -133 0
-22 87 -113 155 -161 82 -58 169 -100 262 -127 102 -30 303 -32 403 -4 148 41
309 139 394 242 l40 47 -29 54 c-35 68 -122 146 -195 176 -53 21 -68 22 -390
24 -253 1 -347 -2 -382 -12z"/>
</g>
</svg>
