<?xml version="1.0" standalone="no"?>
<!DOCTYPE svg PUBLIC "-//W3C//DTD SVG 20010904//EN"
 "http://www.w3.org/TR/2001/REC-SVG-20010904/DTD/svg10.dtd">
<svg version="1.0" xmlns="http://www.w3.org/2000/svg"
 width="244.000000pt" height="245.000000pt" viewBox="0 0 244.000000 245.000000"
 preserveAspectRatio="xMidYMid meet">

<g transform="translate(0.000000,245.000000) scale(0.100000,-0.100000)"
fill="#000000" stroke="none">
<path d="M1185 2318 c-11 -6 -54 -43 -95 -83 -41 -40 -85 -76 -98 -80 -12 -3
-69 1 -127 11 -160 26 -183 10 -205 -146 -20 -135 -23 -139 -138 -199 -56 -28
-108 -61 -117 -73 -26 -38 -18 -82 31 -174 26 -50 46 -101 46 -119 0 -17 -21
-72 -46 -123 -73 -145 -65 -170 76 -242 54 -28 105 -61 114 -74 8 -13 23 -72
33 -130 26 -156 49 -174 183 -150 40 7 95 13 121 13 47 1 50 -1 135 -84 79
-77 91 -85 125 -85 35 0 47 8 127 85 101 97 100 96 249 70 141 -25 167 -2 191
165 6 47 19 97 27 111 10 17 49 42 105 70 154 75 162 98 89 247 -28 57 -51
112 -51 123 0 11 23 67 52 125 l52 105 -15 42 c-13 39 -21 46 -119 97 -72 38
-109 63 -117 81 -7 14 -19 67 -26 117 -23 158 -46 174 -212 148 l-114 -18 -35
22 c-20 12 -56 45 -81 75 -43 50 -96 85 -127 85 -7 0 -22 -6 -33 -12z m205
-249 c166 -44 312 -165 388 -321 52 -107 67 -171 66 -288 -1 -161 -54 -296
-167 -416 -115 -123 -254 -190 -417 -201 -409 -26 -731 354 -645 761 24 115
78 210 169 301 171 171 373 225 606 164z"/>
<path d="M1096 1985 c-348 -88 -512 -501 -318 -800 185 -287 577 -330 817 -90
239 239 197 631 -88 820 -29 19 -79 44 -112 56 -78 27 -218 34 -299 14z"/>
<path d="M433 741 c-84 -84 -153 -161 -153 -170 0 -38 25 -52 124 -71 54 -11
101 -21 103 -23 2 -2 12 -48 22 -102 19 -99 34 -125 71 -125 8 0 104 89 213
198 192 192 197 199 179 215 -18 17 -25 17 -126 1 -121 -19 -161 -13 -208 31
-39 36 -58 77 -66 142 l-7 57 -152 -153z"/>
<path d="M1855 844 c-15 -105 -57 -162 -135 -185 -32 -10 -59 -9 -140 5 -102
17 -140 12 -140 -17 0 -21 384 -397 406 -397 42 0 54 22 74 143 9 52 18 81 29
86 9 4 52 14 96 21 87 15 128 41 119 77 -3 11 -72 86 -153 167 l-148 148 -8
-48z"/>
</g>
</svg>
